<svg width="25" height="24" viewBox="0 0 25 24" fill="none" xmlns="http://www.w3.org/2000/svg">
<path d="M9.4103 6.01C9.59068 6.26 9.72096 6.49 9.81116 6.71C9.90135 6.92 9.95146 7.13 9.95146 7.32C9.95146 7.56 9.88131 7.8 9.74101 8.03C9.61073 8.26 9.42032 8.5 9.1798 8.74L8.41816 9.53C8.30792 9.64 8.25781 9.77 8.25781 9.93C8.25781 10.01 8.26783 10.08 8.28788 10.16C8.31794 10.24 8.34801 10.3 8.36805 10.36C8.54844 10.69 8.85911 11.12 9.30006 11.64C9.75103 12.16 10.2321 12.69 10.7532 13.22C11.2944 13.75 11.8155 14.24 12.3466 14.69C12.8677 15.13 13.2987 15.43 13.6394 15.61C13.6895 15.63 13.7496 15.66 13.8198 15.69C13.9 15.72 13.9801 15.73 14.0703 15.73C14.2407 15.73 14.371 15.67 14.4812 15.56L15.2429 14.81C15.4934 14.56 15.7339 14.37 15.9644 14.25C16.1949 14.11 16.4254 14.04 16.676 14.04C16.8664 14.04 17.0668 14.08 17.2873 14.17C17.5077 14.26 17.7382 14.39 17.9888 14.56L21.3059 16.91C21.5665 17.09 21.7469 17.3 21.8571 17.55C21.9573 17.8 22.0175 18.05 22.0175 18.33C22.0175 18.69 21.9373 19.06 21.7669 19.42C21.5966 19.78 21.3761 20.12 21.0855 20.44C20.5944 20.98 20.0532 21.37 19.4419 21.62C18.8406 21.87 18.1892 22 17.4877 22C16.4655 22 15.3731 21.76 14.2207 21.27C13.0682 20.78 11.9157 20.12 10.7732 19.29C9.62075 18.45 8.52839 17.52 7.48615 16.49C6.45392 15.45 5.52191 14.36 4.69012 13.22C3.86835 12.08 3.20693 10.94 2.72589 9.81C2.24485 8.67 2.00433 7.58 2.00433 6.54C2.00433 5.86 2.12459 5.21 2.36511 4.61C2.60563 4 2.98645 3.44 3.51759 2.94C4.15898 2.31 4.86049 2 5.60209 2C5.88269 2 6.1633 2.06 6.41384 2.18C6.6744 2.3 6.9049 2.48 7.08528 2.74" stroke="black" stroke-opacity="0.3" stroke-width="1.5" stroke-miterlimit="10" stroke-linecap="round" stroke-linejoin="round"/>
</svg>
