<svg width="21" height="21" viewBox="0 0 21 21" fill="none" xmlns="http://www.w3.org/2000/svg">
<path d="M13.125 10.5C13.125 9.0475 11.9525 7.875 10.5 7.875C9.0475 7.875 7.875 9.0475 7.875 10.5C7.875 11.9525 9.0475 13.125 10.5 13.125C10.8587 13.125 11.2088 13.055 11.5238 12.915" stroke="#292D32" stroke-width="1.5" stroke-miterlimit="10" stroke-linecap="round" stroke-linejoin="round"/>
<path d="M6.02002 18.0075L6.97377 18.5588C7.66502 18.97 8.55752 18.725 8.96877 18.0338L9.06502 17.8675C9.85252 16.4938 11.1475 16.4938 11.9438 17.8675L12.04 18.0338C12.4513 18.725 13.3438 18.97 14.035 18.5588L15.5488 17.6925C16.345 17.2375 16.6163 16.2138 16.1613 15.4263C15.365 14.0525 16.0125 12.9325 17.5963 12.9325C18.5063 12.9325 19.2588 12.1888 19.2588 11.27V9.73003C19.2588 8.82003 18.515 8.06753 17.5963 8.06753C16.7125 8.06753 16.1175 7.71753 15.9075 7.16628C15.7413 6.73753 15.8113 6.17753 16.1613 5.57378C16.6163 4.77753 16.345 3.76253 15.5488 3.30753L14.84 2.90503" stroke="#292D32" stroke-width="1.5" stroke-miterlimit="10" stroke-linecap="round" stroke-linejoin="round"/>
<path d="M11.935 3.13251C11.1475 4.50626 9.8525 4.50626 9.05625 3.13251L8.96 2.96626C8.5575 2.27501 7.665 2.03001 6.97375 2.44126L5.46 3.30751C4.66375 3.76251 4.3925 4.78626 4.8475 5.58251C5.64375 6.94751 4.99625 8.06751 3.4125 8.06751C2.5025 8.06751 1.75 8.81126 1.75 9.73001V11.27C1.75 12.18 2.49375 12.9325 3.4125 12.9325C4.99625 12.9325 5.64375 14.0525 4.8475 15.4263" stroke="#292D32" stroke-width="1.5" stroke-miterlimit="10" stroke-linecap="round" stroke-linejoin="round"/>
</svg>
