<svg width="34" height="33" viewBox="0 0 34 33" fill="none" xmlns="http://www.w3.org/2000/svg">
<path d="M13.3025 8.26375C13.5575 8.6075 13.7416 8.92375 13.8691 9.22625C13.9966 9.515 14.0675 9.80375 14.0675 10.065C14.0675 10.395 13.9683 10.725 13.77 11.0412C13.5858 11.3575 13.3166 11.6875 12.9766 12.0175L11.9 13.1037C11.7441 13.255 11.6733 13.4338 11.6733 13.6538C11.6733 13.7638 11.6875 13.86 11.7158 13.97C11.7583 14.08 11.8008 14.1625 11.8291 14.245C12.0841 14.6987 12.5233 15.29 13.1466 16.005C13.7841 16.72 14.4641 17.4488 15.2008 18.1775C15.9658 18.9063 16.7025 19.58 17.4533 20.1987C18.19 20.8037 18.7991 21.2162 19.2808 21.4637C19.3516 21.4912 19.4366 21.5325 19.5358 21.5737C19.6491 21.615 19.7625 21.6287 19.89 21.6287C20.1308 21.6287 20.315 21.5463 20.4708 21.395L21.5475 20.3638C21.9016 20.02 22.2416 19.7587 22.5675 19.5938C22.8933 19.4012 23.2191 19.305 23.5733 19.305C23.8425 19.305 24.1258 19.36 24.4375 19.4838C24.7491 19.6075 25.075 19.7863 25.4291 20.02L30.1183 23.2512C30.4866 23.4987 30.7416 23.7875 30.8975 24.1312C31.0391 24.475 31.1241 24.8187 31.1241 25.2037C31.1241 25.6987 31.0108 26.2075 30.77 26.7025C30.5291 27.1975 30.2175 27.665 29.8066 28.105C29.1125 28.8475 28.3475 29.3838 27.4833 29.7275C26.6333 30.0713 25.7125 30.25 24.7208 30.25C23.2758 30.25 21.7316 29.92 20.1025 29.2463C18.4733 28.5725 16.8441 27.665 15.2291 26.5238C13.6 25.3688 12.0558 24.09 10.5825 22.6737C9.12331 21.2437 7.80581 19.745 6.62998 18.1775C5.46831 16.61 4.53331 15.0425 3.85331 13.4888C3.17331 11.9213 2.83331 10.4225 2.83331 8.9925C2.83331 8.0575 3.00331 7.16375 3.34331 6.33875C3.68331 5.5 4.22165 4.73 4.97248 4.0425C5.87915 3.17625 6.87081 2.75 7.91915 2.75C8.31581 2.75 8.71248 2.8325 9.06665 2.9975C9.43498 3.1625 9.76081 3.41 10.0158 3.7675" stroke="#1C7CD2" stroke-width="1.5" stroke-miterlimit="10" stroke-linecap="round" stroke-linejoin="round"/>
</svg>
